<svg width="28" height="22" viewBox="0 0 28 22" fill="none" xmlns="http://www.w3.org/2000/svg">
<path d="M23.9526 0H4.04741C3.5159 0 2.98958 0.104804 2.49852 0.308419C2.00747 0.512034 1.5613 0.810486 1.18547 1.18672C0.809632 1.56295 0.511495 2.00959 0.308094 2.50116C0.104694 2.99273 0 3.5196 0 4.05168V17.9483C0 18.4804 0.104694 19.0073 0.308094 19.4988C0.511495 19.9904 0.809632 20.4371 1.18547 20.8133C1.5613 21.1895 2.00747 21.488 2.49852 21.6916C2.98958 21.8952 3.5159 22 4.04741 22H23.9526C25.026 22 26.0555 21.5731 26.8146 20.8133C27.5736 20.0535 28 19.0229 28 17.9483V4.05168C28 2.97711 27.5736 1.94655 26.8146 1.18672C26.0555 0.426883 25.026 0 23.9526 0ZM23.9526 1.93358C24.1141 1.93482 24.2749 1.95465 24.4318 1.99263L16.0421 11.5424C15.7875 11.8327 15.474 12.0652 15.1225 12.2244C14.771 12.3837 14.3895 12.4661 14.0037 12.4661C13.6178 12.4661 13.2364 12.3837 12.8849 12.2244C12.5334 12.0652 12.2199 11.8327 11.9652 11.5424L3.50922 1.99263C3.66617 1.95465 3.82695 1.93482 3.98842 1.93358H23.9526ZM26.0611 17.9483C26.0592 18.5075 25.8364 19.0433 25.4414 19.4387C25.0464 19.8341 24.5112 20.0571 23.9526 20.059H4.04741C3.48881 20.0571 2.95361 19.8341 2.55862 19.4387C2.16362 19.0433 1.94086 18.5075 1.93892 17.9483V4.05168C1.93736 3.77597 1.98996 3.50262 2.09373 3.24723L10.5203 12.8413C10.9568 13.3362 11.4935 13.7326 12.0947 14.004C12.6959 14.2755 13.3479 14.4159 14.0074 14.4159C14.6669 14.4159 15.3189 14.2755 15.9201 14.004C16.5213 13.7326 17.0579 13.3362 17.4945 12.8413L25.921 3.24723C26.0248 3.50262 26.0774 3.77597 26.0758 4.05168L26.0611 17.9483Z" fill="#EBE9E8"/>
</svg>
