<svg width="234" height="192" viewBox="0 0 234 192" fill="none" xmlns="http://www.w3.org/2000/svg">
<path d="M83.9598 169.808C82.6087 168.855 81.102 168.095 79.4929 167.554C77.9913 167.074 76.4179 166.801 74.8255 166.743C71.4381 166.706 68.0611 167.086 64.7878 167.87C61.375 168.636 58.163 169.538 55.754 170.259C53.3449 170.981 51.7891 171.522 51.7891 171.522C53.0896 172.175 54.43 172.762 55.8041 173.28C58.8959 174.476 62.1286 175.353 65.4403 175.895C69.1642 176.548 73.0028 176.456 76.6824 175.624C78.3453 175.289 79.8859 174.58 81.159 173.562C82.4322 172.545 83.3961 171.253 83.9598 169.808Z" fill="black" fill-opacity="0.16"/>
<path d="M73.576 156.237C74.8215 158.962 76.8055 161.364 79.3476 163.225C80.5706 164.077 81.9963 164.664 83.5133 164.939C85.0791 165.229 86.7061 165.088 88.1808 164.533C88.2819 161.731 87.4425 158.966 85.7717 156.598C84.1566 154.413 82.1564 152.48 79.8495 150.872C77.8468 149.44 75.752 148.116 73.576 146.905C71.8696 145.913 70.665 145.372 70.665 145.372C70.665 145.372 70.665 145.733 70.665 146.319C70.665 146.905 70.6651 147.762 71.0164 148.798C71.5173 151.365 72.3774 153.864 73.576 156.237Z" fill="black" fill-opacity="0.16"/>
<path d="M49.1332 163.36C50.7914 163.347 52.4236 162.99 53.9033 162.317C55.383 161.645 56.6702 160.675 57.6651 159.483C56.8802 158.245 55.8276 157.161 54.5693 156.294C53.3109 155.427 51.8721 154.794 50.3377 154.434C47.0602 153.664 43.6875 153.271 40.3 153.262C36.7868 153.262 33.3238 153.262 30.714 153.262H26.3477L27.3012 154.118C27.9035 154.614 28.8069 155.381 29.8609 156.192C32.5417 158.174 35.4932 159.841 38.6439 161.151C41.908 162.594 45.4953 163.35 49.1332 163.36Z" fill="black" fill-opacity="0.16"/>
<path d="M55.6048 151.326C56.5104 152.454 57.7138 153.361 59.1068 153.967C60.4997 154.573 62.0387 154.858 63.5849 154.797C64.7199 152.126 64.7199 149.173 63.5849 146.502C62.5946 143.989 61.1719 141.631 59.369 139.514C57.7128 137.44 56.0064 135.682 54.7517 134.465L53.2461 132.977L52.694 132.436L52.3929 133.293C52.3929 133.879 52.0415 134.69 51.891 135.682C51.4634 138.207 51.4634 140.776 51.891 143.301C52.3449 146.217 53.6235 148.98 55.6048 151.326Z" fill="black" fill-opacity="0.16"/>
<path d="M13.9483 129.458L9.9834 128.376L10.4351 129.368C10.7362 129.954 11.2381 130.81 11.8906 131.802C12.543 132.794 13.2457 133.966 14.1491 135.184L15.5544 137.032L15.9558 137.528L16.4577 138.114L17.4615 139.286C19.9958 142.158 23.3659 144.342 27.198 145.598C28.7846 146.131 30.4955 146.295 32.1717 146.074C33.8478 145.854 35.4344 145.256 36.7838 144.336C36.0127 141.528 34.1421 139.063 31.5141 137.393C30.8617 136.942 30.159 136.536 29.4564 136.085L27.2481 134.823L24.8893 133.561L22.5807 132.524C19.7794 131.337 16.896 130.313 13.9483 129.458Z" fill="black" fill-opacity="0.16"/>
<path d="M37.5886 134.824C37.9953 136.154 38.7919 137.362 39.8954 138.322C40.9988 139.281 42.3687 139.957 43.8621 140.279C45.796 138.077 46.8874 135.373 46.9738 132.57C47.057 130.231 46.8889 127.891 46.4719 125.582C46.2759 124.423 45.9908 123.279 45.6187 122.155C45.2674 120.983 44.8658 119.946 44.5145 119.045C44.1632 118.143 43.8119 117.422 43.561 116.926L43.2098 116.114L42.6074 116.926C42.099 117.626 41.63 118.348 41.2021 119.09C39.8477 121.39 38.7548 123.806 37.94 126.303C37.94 127.025 37.5385 127.746 37.3377 128.467C37.1757 129.167 37.0583 129.874 36.9864 130.586C36.9303 131.292 36.9303 132 36.9864 132.705C37.114 133.427 37.3156 134.136 37.5886 134.824Z" fill="black" fill-opacity="0.16"/>
<path d="M10.2361 118.687C10.7983 119.292 11.4197 119.85 12.0931 120.355C12.7435 120.848 13.431 121.3 14.1508 121.708C15.4927 122.55 17.0272 123.113 18.6423 123.355C20.2574 123.597 21.9121 123.512 23.4857 123.105C23.7543 121.706 23.6511 120.269 23.1846 118.912C22.9615 118.268 22.6585 117.648 22.2813 117.064C21.93 116.478 21.4281 115.892 21.0266 115.306C18.9182 112.951 16.3916 110.925 13.5486 109.31C11.0203 107.673 8.38939 106.167 5.66896 104.801L1.95508 103.043C1.95508 103.043 1.95502 103.449 2.20596 104.08C2.4569 104.711 2.7078 105.658 3.10931 106.785C4.06562 109.551 5.39729 112.201 7.07423 114.675C8.01262 116.083 9.06969 117.424 10.2361 118.687Z" fill="black" fill-opacity="0.16"/>
<path d="M28.6043 117.464C29.2811 118.71 30.3002 119.781 31.5654 120.575C34.3493 119.14 36.4148 116.8 37.3369 114.038C37.5678 113.388 37.7521 112.725 37.8889 112.054C37.8889 111.739 37.8889 111.378 37.8889 111.063V110.026C38.0069 108.69 38.0069 107.349 37.8889 106.013C37.7693 103.719 37.5181 101.432 37.1361 99.1604C37.1361 98.2588 36.7847 97.5374 36.6342 97.0415V96.23L35.8814 96.9062C35.2427 97.4928 34.6396 98.1099 34.0747 98.7547C32.2471 100.76 30.6654 102.937 29.3571 105.247C27.9279 107.843 27.1566 110.691 27.0986 113.587C27.0982 114.273 27.1994 114.955 27.3997 115.616C27.7181 116.273 28.1225 116.893 28.6043 117.464Z" fill="black" fill-opacity="0.16"/>
<path d="M4.31629 93.3893C5.11087 94.7855 6.16296 96.0507 7.42795 97.1313C8.55854 98.2048 9.94515 99.0342 11.4837 99.5573C13.0223 100.08 14.6727 100.284 16.3113 100.152C16.8712 98.8308 17.0774 97.41 16.9135 96.0042C16.819 95.3298 16.6508 94.6653 16.4116 94.0205C16.1949 93.3581 15.9267 92.7103 15.6087 92.0819C14.9026 90.7482 14.0267 89.4925 12.9988 88.3399L11.3927 86.5366L9.73658 84.7783C7.42791 82.479 4.71769 80.2699 3.11166 78.8723C1.50563 77.4747 0 76.3477 0 76.3477C0 76.3477 0 77.9256 0 80.315C0.134073 81.6773 0.351913 83.0319 0.652475 84.3726C0.652475 85.0939 1.00372 85.8603 1.20447 86.6267C1.39274 87.4234 1.64445 88.2068 1.95742 88.9711C2.62108 90.4942 3.40953 91.971 4.31629 93.3893Z" fill="black" fill-opacity="0.16"/>
<path d="M24.9425 98.6215C27.9533 97.6965 30.4749 95.8009 32.019 93.3016C32.3795 92.7349 32.698 92.1475 32.9726 91.5433C33.2937 90.9413 33.5784 90.3243 33.8257 89.6949C34.3123 88.4628 34.6817 87.1959 34.9299 85.9078C35.1808 84.6906 35.482 83.4733 35.6326 82.3462C35.7832 81.2192 35.6326 81.2642 35.6326 80.7683C35.6326 80.2724 35.6326 79.7765 35.6326 79.3707C35.6997 78.4099 35.6997 77.4462 35.6326 76.4854C34.5426 77.0502 33.4871 77.6672 32.4707 78.3338L30.9651 79.3256L29.4093 80.5429C28.3027 81.4902 27.2633 82.4991 26.2975 83.5635C25.7956 84.1045 25.2938 84.6906 24.8421 85.3218L24.1897 86.2685L23.6375 87.2153C22.9494 88.4747 22.4435 89.8079 22.1319 91.1826C22.0615 91.8574 22.0615 92.5366 22.1319 93.2114C22.1701 93.8672 22.2879 94.5172 22.4833 95.15C22.9574 96.4777 23.8043 97.6733 24.9425 98.6215Z" fill="black" fill-opacity="0.16"/>
<path d="M12.4967 60.4825C11.6937 59.13 10.8405 57.8226 10.0375 56.5602L7.779 53.2691C6.47412 51.3756 5.47041 50.1133 5.47041 50.1133C5.47041 50.1133 4.96863 51.601 4.46675 53.9454C4.46675 55.1176 4.06522 56.5152 3.96484 58.0029C3.96484 58.7693 3.96484 59.5358 3.96484 60.3022C3.96484 61.0686 3.96484 61.9252 3.96484 62.7367C4.09071 64.3641 4.37613 65.9783 4.81795 67.5606C5.2816 69.1377 5.97341 70.6534 6.87566 72.069C7.67582 73.3627 8.79956 74.4718 10.1582 75.3089C11.5168 76.146 13.0732 76.6883 14.7049 76.8929C15.1413 76.287 15.4953 75.6361 15.759 74.9544C16.0302 74.3275 16.2319 73.6782 16.3612 73.0158C16.6573 71.6764 16.6573 70.2977 16.3612 68.9582C16.0536 67.5358 15.5827 66.1458 14.956 64.8106C14.0526 63.2777 13.2495 61.835 12.4967 60.4825Z" fill="black" fill-opacity="0.16"/>
<path d="M31.4671 72.5601C32.5091 71.6435 33.4195 70.6137 34.1773 69.4944C34.9989 68.4383 35.7207 67.3223 36.3354 66.1582C36.6365 65.6172 36.8875 65.0311 37.1887 64.5352C37.4898 64.0393 37.7407 63.4532 37.9415 62.9573C38.1422 62.4613 38.7445 60.9736 39.0456 60.1621C39.4397 59.2791 39.775 58.3758 40.0494 57.457C38.8415 57.7442 37.6519 58.0904 36.486 58.494C33.8455 59.3809 31.3479 60.5785 29.0582 62.0556C28.3927 62.4714 27.7558 62.9231 27.151 63.4081C26.5694 63.8926 26.0165 64.4043 25.4947 64.941C24.4469 65.9818 23.5683 67.1505 22.885 68.4124C22.2994 69.622 21.9921 70.9255 21.9817 72.2445C21.9761 72.9005 22.0776 73.5536 22.2828 74.1831C22.5316 74.8482 22.8687 75.4839 23.2866 76.0767C26.3844 75.7905 29.2757 74.5476 31.4671 72.5601Z" fill="black" fill-opacity="0.16"/>
<path d="M21.1759 52.1355C21.6371 51.6089 22.0249 51.0336 22.3303 50.4223C22.6246 49.8146 22.8433 49.1796 22.9826 48.5288C22.9826 47.8526 22.9828 47.1763 23.2839 46.5C23.3924 44.9935 23.3081 43.4809 23.0329 41.9916C22.8031 40.4749 22.4848 38.97 22.0793 37.4832C21.2261 34.4626 20.2726 31.6674 19.4696 29.5034C18.6666 27.3393 18.0643 25.9868 18.0643 25.9868L17.4621 26.8885C17.1108 27.4746 16.659 28.3312 16.1069 29.4132C14.7596 32.0482 13.7656 34.8178 13.1458 37.6636C12.8332 39.2718 12.6653 40.9001 12.6439 42.5326C12.5601 43.3273 12.5601 44.1274 12.6439 44.9221C12.7652 45.6848 12.9498 46.4383 13.1961 47.1763C13.6206 48.5801 14.3734 49.8865 15.4043 51.0084C16.4817 52.145 17.8393 53.0404 19.3692 53.6233C20.0406 53.1996 20.6478 52.6995 21.1759 52.1355Z" fill="black" fill-opacity="0.16"/>
<path d="M48.9792 40.7344L49.4309 40.0581H48.377H45.6668C44.3682 40.1932 43.0782 40.3889 41.8022 40.6442L39.6441 41.1401L37.4861 41.8164C35.9979 42.3376 34.5692 42.9868 33.2201 43.7549C31.9359 44.5306 30.7715 45.4553 29.7571 46.505C29.2822 47.0154 28.8778 47.5755 28.5526 48.1731C28.238 48.7512 27.9859 49.3551 27.7998 49.9765C27.335 51.2814 27.335 52.684 27.7998 53.9889C29.4558 54.2913 31.1626 54.2913 32.8186 53.9889C34.2765 53.6886 35.6792 53.2028 36.9842 52.5462C37.6097 52.218 38.2131 51.8567 38.791 51.4642L39.6441 50.833L40.4974 50.2019C41.5694 49.3622 42.56 48.4422 43.4585 47.4518C44.3373 46.579 45.1584 45.6608 45.9176 44.7017L46.4195 44.0255L46.9215 43.3943L47.8248 42.2221C48.3267 41.7713 48.7282 41.1852 48.9792 40.7344Z" fill="black" fill-opacity="0.16"/>
<path d="M30.7636 32.7515C32.1596 32.1368 33.366 31.2234 34.2767 30.0915C35.1947 29.0209 35.8607 27.7938 36.2341 26.4848C37.0879 23.5443 37.4267 20.5022 37.238 17.4681C37.238 16.7016 37.238 15.9352 37.238 15.2139C37.238 14.4925 37.238 13.7712 37.238 13.0498C37.238 11.6522 36.9869 10.3448 36.8364 9.21773C36.5854 7.00862 36.3344 5.56592 36.3344 5.56592L35.5816 6.33237C35.0798 6.82829 34.4273 7.54961 33.6745 8.49637C32.9216 9.44313 32.0183 10.5251 31.2153 11.7424C30.3337 13.064 29.5458 14.4343 28.8564 15.845C28.1566 17.3007 27.6024 18.8095 27.2002 20.3534C26.8395 21.8332 26.6876 23.3479 26.7484 24.8618C26.701 26.3652 27.0384 27.8583 27.7345 29.2261C28.4306 30.5939 29.4669 31.8 30.7636 32.7515Z" fill="black" fill-opacity="0.16"/>
<path d="M55.3555 31.1771C56.4567 30.4807 57.5124 29.7281 58.5174 28.9229C59.4709 28.2015 60.3241 27.5253 61.0268 26.8941L62.6829 25.4063L63.2853 24.8202C62.0413 24.5948 60.7848 24.4293 59.5212 24.3243C58.2172 24.263 56.9104 24.263 55.6064 24.3243C54.0772 24.3229 52.5503 24.4284 51.0394 24.6399C47.9034 24.9825 44.9066 26.0035 42.3065 27.6155C41.1448 28.4109 40.1722 29.4073 39.4459 30.5459C38.7676 31.7597 38.456 33.1123 38.5424 34.4682C41.432 35.5929 44.6778 35.7371 47.6767 34.874C49.0967 34.5149 50.4621 34.0001 51.7419 33.3411C53.0096 32.7088 54.2181 31.985 55.3555 31.1771Z" fill="black" fill-opacity="0.16"/>
<path d="M49.0826 150.831C58.6849 157.471 69.3657 162.747 80.7513 166.475C89.8354 169.766 101.479 175.176 113.323 180C103.623 182.792 93.7319 185.021 83.7124 186.672C82.6083 186.672 88.2795 192.037 89.3837 191.722C99.4213 189.062 109.158 185.861 118.995 182.299C128.57 186.525 138.682 189.689 149.108 191.722C150.212 191.722 153.625 186.627 152.52 186.492C143.09 184.963 133.785 182.87 124.666 180.225C141.128 174.004 156.987 166.971 170.689 160.298C185.318 153.296 197.028 142.223 204.064 128.74C211.162 115.968 215.342 102.049 216.36 87.8035C216.75 68.2077 210.596 48.9562 198.693 32.5308C195.341 27.6052 191.618 22.8906 187.552 18.4196C187.849 17.2474 187.849 16.0302 187.552 14.858C187.278 13.4826 186.679 12.1759 185.795 11.0258C183.87 8.63512 181.342 6.68837 178.417 5.34528C175.855 4.09772 173.122 3.15794 170.287 2.55007C169.393 2.35718 168.488 2.2067 167.577 2.09924H166.824L167.175 2.68531L168.43 4.80426C169.714 6.98609 171.121 9.10779 172.646 11.1611C173.504 12.3106 174.443 13.4099 175.456 14.4522C175.958 14.9628 176.494 15.4446 177.062 15.8949C177.594 16.3543 178.165 16.7763 178.769 17.1572C179.955 17.9154 181.28 18.48 182.683 18.8253C183.799 19.0709 184.95 19.1621 186.096 19.0958C193.929 27.5761 200.43 36.981 205.419 47.0478C211.795 59.5248 214.968 73.1298 214.704 86.8568C213.813 102.019 209.239 116.822 201.303 130.227C195.589 140.439 186.921 149.082 176.209 155.249C166.382 160.647 156.075 165.306 145.394 169.18C137.514 172.245 128.129 175.401 118.593 178.196C99.1233 172.419 80.2622 165.102 62.2319 156.331C54.4981 152.531 47.5673 147.542 41.7552 141.588C36.1455 135.415 31.6723 128.474 28.5054 121.03C21.7684 107.396 18.5596 92.5679 19.1203 77.6597C20.7581 60.0532 27.5069 43.1403 38.6936 28.6085C41.4668 24.7998 44.4657 21.1277 47.6773 17.6081C48.7902 17.662 49.906 17.5709 50.9898 17.3375C52.3939 16.9931 53.7192 16.4284 54.9044 15.6695C55.5048 15.2844 56.075 14.8626 56.6108 14.4071C57.1805 13.9581 57.7171 13.4762 58.2169 12.9644C59.2269 11.9194 60.1654 10.8203 61.0274 9.67331C62.7338 7.41913 64.1892 5.16492 65.2432 3.31648L66.4979 1.15248L66.8492 0.566406H66.0965C65.444 0.566406 64.4904 0.791818 63.3863 1.01724C60.5545 1.63384 57.8222 2.57317 55.2558 3.81241C52.3269 5.16975 49.7984 7.13207 47.8781 9.53807C46.9999 10.674 46.401 11.965 46.1215 13.3251C45.8287 14.4825 45.8287 15.6842 46.1215 16.8416C38.64 24.9921 32.3645 33.9784 27.4515 43.5763C21.4187 55.1025 18.0062 67.594 17.4139 80.3196C17.3532 94.8259 20.7769 109.173 27.4515 122.383C31.9231 133.33 39.3567 143.107 49.0826 150.831Z" fill="black" fill-opacity="0.16"/>
<path d="M168.28 177.386C171.592 176.846 174.825 175.969 177.916 174.771C179.288 174.249 180.628 173.662 181.931 173.013C181.931 173.013 180.375 172.472 177.966 171.75C175.557 171.029 172.345 170.082 168.933 169.361C165.658 168.581 162.282 168.202 158.895 168.234C157.303 168.291 155.729 168.565 154.228 169.045C152.619 169.587 151.112 170.347 149.761 171.299C150.335 172.775 151.326 174.091 152.637 175.118C153.948 176.146 155.534 176.849 157.239 177.16C160.857 177.958 164.625 178.035 168.28 177.386Z" fill="black" fill-opacity="0.16"/>
<path d="M150.009 166.424C151.522 166.139 152.945 165.554 154.174 164.711C156.704 162.84 158.686 160.441 159.946 157.723C161.103 155.344 161.929 152.845 162.405 150.284C162.405 149.247 162.706 148.391 162.756 147.805C162.806 147.219 162.756 146.858 162.756 146.858C162.756 146.858 161.602 147.399 159.845 148.391C157.668 149.599 155.573 150.924 153.572 152.358C151.269 153.969 149.269 155.902 147.65 158.084C145.973 160.45 145.133 163.216 145.241 166.019C146.745 166.595 148.411 166.737 150.009 166.424Z" fill="black" fill-opacity="0.16"/>
<path d="M193.321 154.792C189.934 154.8 186.561 155.194 183.283 155.964C181.749 156.324 180.31 156.956 179.052 157.824C177.794 158.691 176.741 159.775 175.956 161.013C176.948 162.207 178.235 163.179 179.715 163.852C181.196 164.524 182.829 164.88 184.488 164.89C188.174 164.922 191.817 164.181 195.128 162.726C198.282 161.421 201.234 159.754 203.911 157.767C205.015 156.956 205.918 156.234 206.521 155.693L207.424 154.837H203.058C200.347 154.747 196.834 154.656 193.321 154.792Z" fill="black" fill-opacity="0.16"/>
<path d="M169.935 156.285C171.485 156.337 173.025 156.043 174.418 155.429C175.81 154.815 177.012 153.901 177.915 152.768C179.819 150.418 181.027 147.673 181.428 144.788C181.858 142.263 181.858 139.694 181.428 137.169C181.428 136.177 181.077 135.366 180.876 134.78C180.675 134.194 180.525 133.968 180.525 133.968L179.972 134.509C179.621 134.87 179.069 135.366 178.467 135.997C177.864 136.628 175.556 139.018 173.849 141.046C172.057 143.17 170.635 145.526 169.634 148.034C168.612 150.726 168.72 153.659 169.935 156.285Z" fill="black" fill-opacity="0.16"/>
<path d="M216.059 140.596L217.113 139.424L217.615 138.838L218.017 138.342L219.422 136.494C220.325 135.277 221.078 134.149 221.68 133.158C222.283 132.166 222.785 131.309 223.086 130.723C223.387 130.137 223.537 129.776 223.537 129.776L219.573 130.858C216.645 131.687 213.778 132.68 210.99 133.834L208.682 134.871L206.323 136.133L204.115 137.395C203.412 137.801 202.709 138.252 202.057 138.703C199.426 140.371 197.554 142.836 196.787 145.646C198.137 146.566 199.723 147.164 201.399 147.385C203.076 147.605 204.786 147.441 206.373 146.908C210.188 145.647 213.541 143.463 216.059 140.596Z" fill="black" fill-opacity="0.16"/>
<path d="M195.582 127.834C194.766 125.323 193.674 122.892 192.32 120.576C191.768 119.674 191.316 118.908 190.915 118.412L190.313 117.6L189.961 118.367C189.961 118.862 189.359 119.584 189.008 120.485C188.656 121.387 188.255 122.424 187.903 123.596C187.53 124.719 187.245 125.864 187.05 127.023C186.637 129.332 186.469 131.672 186.548 134.011C186.635 136.814 187.726 139.518 189.66 141.72C191.16 141.394 192.534 140.712 193.638 139.744C194.742 138.776 195.535 137.558 195.934 136.22C196.151 135.557 196.302 134.878 196.385 134.191C196.441 133.486 196.441 132.777 196.385 132.072C196.313 131.36 196.195 130.653 196.034 129.953C195.984 129.457 195.582 128.555 195.582 127.834Z" fill="black" fill-opacity="0.16"/>
<path d="M231.316 105.657C231.316 104.98 231.316 104.62 231.316 104.62L227.602 106.378C224.879 107.739 222.248 109.245 219.723 110.886C216.875 112.496 214.347 114.522 212.245 116.882C211.793 117.469 211.341 118.01 210.99 118.641C210.613 119.225 210.31 119.845 210.087 120.489C209.62 121.846 209.517 123.283 209.786 124.682C211.359 125.088 213.014 125.174 214.629 124.932C216.244 124.69 217.779 124.127 219.121 123.284C219.839 122.875 220.527 122.423 221.178 121.932C221.845 121.421 222.466 120.863 223.035 120.264C224.179 119.027 225.219 117.716 226.147 116.341C227.821 113.867 229.153 111.217 230.112 108.452C230.714 107.234 231.115 106.288 231.316 105.657Z" fill="black" fill-opacity="0.16"/>
<path d="M201.954 122.063C203.22 121.269 204.239 120.199 204.915 118.953C205.241 118.347 205.493 117.713 205.668 117.059C205.863 116.397 205.964 115.715 205.969 115.03C205.91 112.135 205.139 109.286 203.711 106.69C202.396 104.383 200.815 102.207 198.993 100.198C198.291 99.3861 197.638 98.8 197.187 98.3491L196.434 97.6729V98.4844C196.434 98.9803 196.133 99.7467 195.932 100.648C195.545 102.919 195.294 105.206 195.179 107.501C195.05 108.851 195.05 110.209 195.179 111.559V112.596V113.588C195.312 114.259 195.496 114.922 195.731 115.571C196.773 118.387 199.01 120.72 201.954 122.063Z" fill="black" fill-opacity="0.16"/>
<path d="M223.736 86.4529L222.08 88.2112L220.474 90.0145C219.472 91.1746 218.614 92.4293 217.914 93.7565C217.592 94.3833 217.323 95.0314 217.111 95.6951C216.861 96.3372 216.693 97.0026 216.609 97.6787C216.445 99.0846 216.652 100.505 217.212 101.826C218.85 101.958 220.501 101.755 222.039 101.232C223.578 100.709 224.964 99.8793 226.095 98.8058C226.704 98.2684 227.274 97.6962 227.801 97.0926C228.318 96.4445 228.788 95.7668 229.207 95.0639C230.072 93.6151 230.811 92.1077 231.415 90.5555C231.728 89.7912 231.979 89.0077 232.168 88.2112C232.168 87.4448 232.569 86.6783 232.72 85.957C233.02 84.6162 233.238 83.2617 233.372 81.8995C233.372 79.51 233.372 77.9321 233.372 77.9321C233.372 77.9321 232.067 78.924 230.261 80.4568C228.454 81.9896 226.045 84.3791 223.736 86.4529Z" fill="black" fill-opacity="0.16"/>
<path d="M211.04 96.5936C211.235 95.9609 211.353 95.3108 211.391 94.655C211.468 93.9805 211.468 93.3008 211.391 92.6263C211.083 91.2508 210.577 89.9171 209.886 88.6589L209.334 87.7121L208.681 86.7653C208.229 86.1792 207.728 85.5481 207.226 85.0071C206.265 83.9385 205.226 82.9294 204.114 81.9865C203.62 81.5558 203.101 81.1495 202.558 80.7692L200.601 79.8675C198.744 78.6502 197.439 78.019 197.439 78.019C197.381 78.9801 197.381 79.9434 197.439 80.9044C197.467 81.37 197.467 81.8365 197.439 82.302C197.439 82.798 197.439 83.339 197.439 83.88C197.439 84.421 197.841 86.2243 198.142 87.4416C198.389 88.7299 198.759 89.9968 199.246 91.2286C199.246 91.8598 199.798 92.491 200.099 93.0771C200.373 93.6814 200.692 94.2688 201.053 94.8354C202.593 97.3375 205.116 99.2342 208.129 100.155C209.451 99.2361 210.46 98.0021 211.04 96.5936Z" fill="black" fill-opacity="0.16"/>
<path d="M217.364 70.3052C216.779 72.2876 216.902 74.3851 217.716 76.3014C217.983 76.9817 218.337 77.6322 218.769 78.24C220.402 78.0387 221.961 77.4978 223.32 76.6603C224.679 75.8229 225.802 74.7119 226.599 73.416C227.496 71.9984 228.188 70.4833 228.657 68.9076C229.099 67.3101 229.384 65.6808 229.51 64.0385C229.51 63.227 229.51 62.4155 229.51 61.604C229.51 60.7925 229.51 60.0261 229.51 59.3047C229.51 57.817 229.209 56.4194 229.008 55.2472C228.456 52.9028 227.954 51.415 227.954 51.415C227.954 51.415 227 52.6323 225.645 54.5709L223.387 57.862C222.584 59.0793 221.73 60.4318 220.927 61.7843C220.124 63.1369 219.372 64.5345 218.719 65.9321C218.09 67.3405 217.635 68.8071 217.364 70.3052Z" fill="black" fill-opacity="0.16"/>
<path d="M210.638 69.9022C209.957 68.639 209.078 67.47 208.028 66.4307C207.476 65.8897 206.924 65.3938 206.372 64.8979C205.763 64.417 205.127 63.9655 204.465 63.5453C202.173 62.0718 199.676 60.8744 197.037 59.9837C195.871 59.5798 194.682 59.2336 193.474 58.9468C193.748 59.8655 194.084 60.7687 194.477 61.6518C194.779 62.4633 195.13 63.4101 195.582 64.447C196.033 65.4839 196.083 65.4839 196.334 66.0249C196.585 66.566 196.836 67.107 197.188 67.6931C197.8 68.8585 198.522 69.9746 199.346 71.0293C200.107 72.1462 201.017 73.1756 202.056 74.095C204.245 76.125 207.158 77.4013 210.287 77.7017C210.706 77.1096 211.043 76.4737 211.29 75.8081C211.492 75.178 211.594 74.5253 211.592 73.8695C211.579 72.5025 211.254 71.1522 210.638 69.9022Z" fill="black" fill-opacity="0.16"/>
<path d="M215.655 27.6162C215.655 27.6162 215.053 28.9687 214.25 31.1328C213.447 33.2968 212.493 36.092 211.64 39.1126C211.239 40.6004 210.937 42.0881 210.686 43.621C210.408 45.1099 210.324 46.6229 210.435 48.1294C210.435 48.8056 210.435 49.527 210.737 50.1582C210.876 50.809 211.095 51.444 211.389 52.0517C211.68 52.6741 212.051 53.2641 212.493 53.81C212.943 54.4012 213.465 54.9455 214.049 55.433C215.602 54.8637 216.979 53.9668 218.064 52.8181C219.096 51.697 219.849 50.3903 220.273 48.986C220.515 48.247 220.699 47.4938 220.825 46.7318C220.894 45.9365 220.894 45.1376 220.825 44.3423C220.794 42.7103 220.627 41.0826 220.323 39.4733C219.7 36.6281 218.706 33.8589 217.361 31.2229C216.86 30.1409 216.358 29.2843 216.006 28.6982L215.655 27.6162Z" fill="black" fill-opacity="0.16"/>
<path d="M204.967 49.979C204.648 49.3783 204.243 48.8176 203.763 48.3109C202.75 47.2593 201.586 46.3343 200.3 45.5608C198.955 44.7859 197.525 44.1364 196.034 43.6222L193.825 42.9009L191.667 42.405C190.409 42.1453 189.136 41.9496 187.853 41.8188H185.143H184.089L184.541 42.4951C184.842 42.9459 185.193 43.532 185.745 44.2534L186.649 45.4255L187.15 46.0567L187.652 46.733C188.406 47.6958 189.227 48.6143 190.111 49.483C191.008 50.4754 191.998 51.3956 193.073 52.2331L193.926 52.8643L194.779 53.4504C195.353 53.8479 195.957 54.2094 196.586 54.5324C197.884 55.2015 199.289 55.6881 200.751 55.975C202.407 56.2824 204.115 56.2824 205.77 55.975C206.225 54.6688 206.225 53.2688 205.77 51.9626C205.59 51.2754 205.32 50.6097 204.967 49.979Z" fill="black" fill-opacity="0.16"/>
<path d="M202.757 34.2408C204.056 33.3543 205.118 32.2181 205.865 30.9154C206.611 29.6127 207.025 28.1765 207.074 26.7119C207.138 25.1979 206.986 23.6828 206.622 22.2035C206.221 20.6592 205.667 19.1504 204.966 17.6951C204.278 16.2837 203.49 14.9134 202.607 13.5925C201.804 12.3302 200.901 11.2481 200.148 10.3465C199.395 9.44479 198.692 8.67835 198.241 8.18243L197.488 7.41602C197.488 7.41602 197.237 8.90377 196.936 11.0678C196.936 12.1949 196.635 13.5023 196.534 14.8999C196.534 15.5762 196.534 16.2975 196.534 17.0639C196.534 17.8304 196.534 18.5517 196.534 19.3181C196.357 22.3521 196.695 25.3926 197.538 28.3349C197.925 29.6393 198.59 30.8641 199.495 31.9416C200.382 32.9137 201.495 33.6987 202.757 34.2408Z" fill="black" fill-opacity="0.16"/>
<path d="M191.165 28.9631C188.568 27.3384 185.572 26.3021 182.432 25.9425C180.921 25.7349 179.394 25.6294 177.865 25.627C176.41 25.627 175.105 25.627 173.951 25.627C171.642 25.627 170.187 26.1229 170.187 26.1229L170.789 26.7089L172.445 28.1967C173.148 28.8279 174.001 29.5041 174.954 30.2254C175.947 31.0253 176.986 31.7777 178.066 32.4796C179.227 33.2538 180.451 33.9471 181.73 34.5534C182.993 35.211 184.341 35.7259 185.745 36.0863C188.743 36.9536 191.991 36.8093 194.879 35.6805C194.965 34.3246 194.654 32.9721 193.976 31.7583C193.249 30.6718 192.295 29.7225 191.165 28.9631Z" fill="black" fill-opacity="0.16"/>
</svg>
