<svg width="94" height="59" viewBox="0 0 94 59" fill="none" xmlns="http://www.w3.org/2000/svg">
<path fill-rule="evenodd" clip-rule="evenodd" d="M4.6999 58.4098C2.4674 58.4098 0.587402 56.5218 0.587402 54.2798V4.71984C0.587402 2.47784 2.4674 0.589844 4.6999 0.589844H89.2999C91.5324 0.589844 93.4124 2.47784 93.4124 4.71984V54.2798C93.4124 56.5218 91.5324 58.4098 89.2999 58.4098H4.6999Z" fill="black"/>
<path d="M89.3 1.18C91.2387 1.18 92.825 2.773 92.825 4.72V54.28C92.825 56.227 91.2387 57.82 89.3 57.82H4.7C2.76125 57.82 1.175 56.227 1.175 54.28V4.72C1.175 2.773 2.76125 1.18 4.7 1.18H89.3ZM89.3 0H4.7C2.115 0 0 2.124 0 4.72V54.28C0 56.876 2.115 59 4.7 59H89.3C91.885 59 94 56.876 94 54.28V4.72C94 2.124 91.885 0 89.3 0Z" fill="#E6E6E6"/>
<path d="M29.4925 50.8579V48.0259C29.4925 46.9639 28.7875 46.2559 27.73 46.1969C27.1425 46.1969 26.555 46.3739 26.1438 47.0229C25.85 46.4919 25.3213 46.1969 24.675 46.1969C24.205 46.1969 23.735 46.3149 23.3825 46.8459V46.3149H22.3838V50.8579H23.3825V48.3799C23.3825 47.6129 23.7938 47.1999 24.4988 47.1999C25.145 47.1999 25.4975 47.6129 25.4975 48.3799V50.9169H26.4375V48.3799C26.4375 47.6129 26.9075 47.1999 27.5538 47.1999C28.2 47.1999 28.5525 47.6129 28.5525 48.3799V50.9169H29.4925V50.8579ZM44.18 46.3149H42.5938V44.9579H41.595V46.3149H40.655V47.1999H41.595V49.2649C41.595 50.3269 42.0063 50.9169 43.1813 50.9169C43.5925 50.9169 44.1213 50.7989 44.415 50.5629L44.1213 49.7369C43.8275 49.9139 43.5338 49.9729 43.24 49.9729C42.77 49.9729 42.5938 49.6779 42.5938 49.2059V47.1409H44.18V46.3149ZM52.5225 46.1969C51.935 46.1969 51.5825 46.4919 51.3475 46.8459V46.3149H50.3488V50.8579H51.3475V48.3209C51.3475 47.5539 51.6413 47.1409 52.2875 47.1409C52.4638 47.1409 52.6988 47.1409 52.875 47.2589L53.1688 46.3149C53.0513 46.2559 52.7575 46.1969 52.5225 46.1969ZM39.8913 46.6689C39.4213 46.3739 38.775 46.1969 38.07 46.1969C36.9538 46.1969 36.19 46.7279 36.19 47.6719C36.19 48.4389 36.7188 48.8519 37.7175 49.0289L38.1875 49.0879C38.7163 49.1469 38.9513 49.3239 38.9513 49.5599C38.9513 49.9139 38.5988 50.0909 37.9525 50.0909C37.2475 50.0909 36.7775 49.8549 36.425 49.6189L35.955 50.3859C36.4838 50.7989 37.1888 50.9759 37.8938 50.9759C39.1863 50.9759 39.95 50.3859 39.95 49.5009C39.95 48.7339 39.3625 48.2619 38.3638 48.1439L37.8938 48.0849C37.4825 48.0259 37.13 47.9669 37.13 47.6129C37.13 47.2589 37.4238 47.0819 38.0113 47.0819C38.5988 47.0819 39.1275 47.3179 39.4213 47.4949L39.8913 46.6689ZM66.2113 46.1969C65.6238 46.1969 65.2713 46.4919 65.0363 46.8459V46.3149H64.0375V50.8579H65.0363V48.3209C65.0363 47.5539 65.33 47.1409 65.9763 47.1409C66.1525 47.1409 66.3875 47.1409 66.5638 47.2589L66.8575 46.3149C66.6813 46.2559 66.3875 46.1969 66.2113 46.1969ZM53.5213 48.6159C53.5213 49.9729 54.4613 50.9759 55.93 50.9759C56.635 50.9759 57.0463 50.7989 57.575 50.4449L57.105 49.6779C56.7525 49.9729 56.3413 50.0909 55.93 50.0909C55.1663 50.0909 54.5788 49.5009 54.5788 48.6159C54.5788 47.7309 55.1663 47.1999 55.93 47.1409C56.3413 47.1409 56.7525 47.2589 57.105 47.5539L57.575 46.7869C57.105 46.3739 56.635 46.2559 55.93 46.2559C54.52 46.1969 53.5213 47.1999 53.5213 48.6159ZM62.745 48.6159V46.3739H61.7463V46.9049C61.4525 46.4919 60.9825 46.2559 60.3363 46.2559C59.0438 46.2559 58.1038 47.2589 58.1038 48.6159C58.1038 49.9729 59.1025 50.9759 60.3363 50.9759C60.9825 50.9759 61.4525 50.7399 61.7463 50.3269V50.8579H62.745V48.6159ZM59.1025 48.6159C59.1025 47.8489 59.6313 47.1409 60.4538 47.1409C61.2763 47.1409 61.805 47.7899 61.805 48.6159C61.805 49.4419 61.2763 50.0909 60.4538 50.0909C59.5725 50.0319 59.1025 49.3829 59.1025 48.6159ZM47.235 46.1969C45.9425 46.1969 45.0025 47.1409 45.0025 48.5569C45.0025 49.9729 45.9425 50.9169 47.2938 50.9169C47.9988 50.9169 48.5863 50.7399 49.115 50.2679L48.645 49.5599C48.2925 49.8549 47.7638 50.0319 47.3525 50.0319C46.7063 50.0319 46.1188 49.7369 46.0013 48.9109H49.35V48.5569C49.35 47.1999 48.5275 46.1969 47.235 46.1969ZM47.235 47.0819C47.8813 47.0819 48.2925 47.4949 48.3513 48.2029H46.0013C46.1188 47.5539 46.53 47.0819 47.235 47.0819ZM71.8513 48.6159V44.5449H70.8525V46.9049C70.5588 46.4919 70.0888 46.2559 69.4425 46.2559C68.15 46.2559 67.21 47.2589 67.21 48.6159C67.21 49.9729 68.2088 50.9759 69.4425 50.9759C70.0888 50.9759 70.5588 50.7399 70.8525 50.3269V50.8579H71.8513V48.6159ZM68.2088 48.6159C68.2088 47.8489 68.7375 47.1409 69.56 47.1409C70.3825 47.1409 70.9113 47.7899 70.9113 48.6159C70.9113 49.4419 70.3825 50.0909 69.56 50.0909C68.6788 50.0319 68.2088 49.3829 68.2088 48.6159ZM35.015 48.6159V46.3739H34.075V46.9049C33.7813 46.4919 33.3113 46.2559 32.665 46.2559C31.3725 46.2559 30.4325 47.2589 30.4325 48.6159C30.4325 49.9729 31.4313 50.9759 32.665 50.9759C33.3113 50.9759 33.7813 50.7399 34.075 50.3269V50.8579H35.0738V48.6159H35.015ZM31.3725 48.6159C31.3725 47.8489 31.9013 47.1409 32.7238 47.1409C33.5463 47.1409 34.075 47.7899 34.075 48.6159C34.075 49.4419 33.5463 50.0909 32.7238 50.0909C31.9013 50.0319 31.3725 49.3829 31.3725 48.6159ZM73.4963 50.2089C73.555 50.2089 73.6138 50.2089 73.6725 50.2679C73.7313 50.2679 73.79 50.3269 73.79 50.3859C73.8488 50.4449 73.8488 50.5039 73.9075 50.5039C73.9075 50.5629 73.9663 50.6219 73.9663 50.6809C73.9663 50.7399 73.9663 50.7989 73.9075 50.8579C73.9075 50.9169 73.8488 50.9759 73.79 50.9759C73.7313 51.0349 73.6725 51.0349 73.6725 51.0939C73.6138 51.0939 73.555 51.1529 73.4963 51.1529C73.4375 51.1529 73.3788 51.1529 73.32 51.0939C73.2613 51.0939 73.2025 51.0349 73.2025 50.9759L73.085 50.8579C73.085 50.7989 73.0263 50.7399 73.0263 50.6809C73.0263 50.6219 73.0263 50.5629 73.085 50.5039C73.085 50.4449 73.1438 50.3859 73.2025 50.3859C73.2613 50.3269 73.32 50.3269 73.32 50.2679C73.3788 50.2089 73.4375 50.2089 73.4963 50.2089ZM73.4963 51.0349H73.6138C73.6725 51.0349 73.6725 50.9759 73.7313 50.9759C73.79 50.9169 73.79 50.9169 73.79 50.8579V50.6219C73.79 50.5629 73.7313 50.5629 73.7313 50.5039C73.6725 50.4449 73.6725 50.4449 73.6138 50.4449H73.3788C73.32 50.4449 73.32 50.5039 73.2613 50.5039C73.2025 50.5629 73.2025 50.5629 73.2025 50.6219V50.8579C73.2025 50.9169 73.2613 50.9169 73.2613 50.9759C73.32 51.0349 73.32 51.0349 73.3788 51.0349C73.3788 50.9759 73.4375 51.0349 73.4963 51.0349ZM73.4963 50.4449C73.555 50.4449 73.6138 50.4449 73.6138 50.5039C73.6138 50.5039 73.6725 50.5629 73.6725 50.6219C73.6725 50.6809 73.6725 50.6809 73.6138 50.6809C73.6138 50.6809 73.555 50.7399 73.4963 50.7399L73.6138 50.9169H73.4963L73.3788 50.7399H73.32V50.9169H73.2025V50.5039H73.4963V50.4449ZM73.3788 50.5039V50.6219H73.555V50.5039H73.3788Z" fill="white"/>
<path d="M39.5391 11.7998H54.4028V38.6448H39.5391V11.7998Z" fill="#F16522"/>
<path d="M40.5374 25.1926C40.5374 19.7646 43.0636 14.9266 46.9999 11.7996C44.1211 9.4986 40.4786 8.1416 36.4836 8.1416C27.0836 8.1416 19.5049 15.7526 19.5049 25.1926C19.5049 34.6326 27.0836 42.2436 36.4836 42.2436C40.4199 42.2436 44.1211 40.8866 46.9999 38.5856C43.0636 35.5176 40.5374 30.6796 40.5374 25.1926Z" fill="#E41B24"/>
<path d="M74.495 25.1926C74.495 34.6326 66.9163 42.2436 57.5163 42.2436C53.58 42.2436 49.8788 40.8866 47 38.5856C50.9363 35.4586 53.4625 30.6206 53.4625 25.1926C53.4625 19.7646 50.9363 14.9266 47 11.7996C49.8788 9.4986 53.5213 8.1416 57.5163 8.1416C66.8575 8.1416 74.495 15.8116 74.495 25.1926ZM72.85 35.8126V35.2816H73.085V35.1636H72.4975V35.2816H72.7325V35.8126H72.85ZM73.9663 35.8126V35.1636H73.79L73.6138 35.6356L73.4375 35.1636H73.2612V35.8126H73.3788V35.3406L73.555 35.7536H73.6725L73.8487 35.3406V35.8126H73.9663Z" fill="#F89E1C"/>
</svg>
