<svg width="17" height="15" viewBox="0 0 17 15" fill="none" xmlns="http://www.w3.org/2000/svg">
<path d="M16.8538 3.34785C16.7558 2.96754 16.6046 2.60272 16.4045 2.26403C16.2123 1.91171 15.9666 1.59083 15.676 1.31269C15.2546 0.896182 14.7556 0.564893 14.2068 0.337256C13.102 -0.112419 11.8632 -0.112419 10.7584 0.337256C10.2397 0.555028 9.76307 0.860643 9.34994 1.24043L9.28923 1.31269L8.5 2.09544L7.71076 1.31269L7.65005 1.24043C7.23692 0.860643 6.76032 0.555028 6.24157 0.337256C5.13683 -0.112419 3.89795 -0.112419 2.79321 0.337256C2.24437 0.564893 1.74538 0.896182 1.32402 1.31269C0.74771 1.86884 0.339746 2.57379 0.146236 3.34785C0.0432891 3.74093 -0.00572118 4.146 0.000530703 4.55208C0.000530703 4.93383 0.0490991 5.31436 0.146236 5.68406C0.248028 6.05743 0.39479 6.41728 0.583351 6.75584C0.786993 7.10387 1.03603 7.42374 1.32402 7.70718L8.5 14.8242L15.676 7.70718C15.9637 7.42659 16.2102 7.10506 16.4045 6.75584C16.7989 6.08761 17.0044 5.32634 16.9995 4.55208C17.0058 4.146 16.9567 3.74093 16.8538 3.34785ZM15.6395 5.31075C15.4941 5.86099 15.2052 6.36355 14.8017 6.76788L8.47571 13.0299L2.14968 6.76788C1.94354 6.56197 1.76407 6.33139 1.61543 6.08146C1.47556 5.83421 1.36552 5.57148 1.28759 5.29871C1.22538 5.02597 1.19281 4.74741 1.19046 4.46779C1.1921 4.18017 1.22467 3.89355 1.28759 3.61278C1.36324 3.33922 1.47339 3.07623 1.61543 2.83002C1.76113 2.57714 1.94084 2.34833 2.14968 2.14361C2.46161 1.83839 2.82805 1.59337 3.23033 1.42107C4.04095 1.09944 4.94526 1.09944 5.75588 1.42107C6.15657 1.58605 6.51841 1.8281 6.82439 2.13157L8.47571 3.78137L10.127 2.13157C10.4328 1.82756 10.7959 1.58615 11.1955 1.42107C12.0062 1.09944 12.9105 1.09944 13.7211 1.42107C14.123 1.59327 14.4897 1.83894 14.8017 2.14361C15.013 2.34231 15.1903 2.57352 15.3239 2.83002C15.6051 3.32191 15.7516 3.87824 15.7488 4.4437C15.7653 4.73467 15.7408 5.02651 15.676 5.31075H15.6395Z" fill="black"/>
</svg>
