<svg width="94" height="59" viewBox="0 0 94 59" fill="none" xmlns="http://www.w3.org/2000/svg">
<path fill-rule="evenodd" clip-rule="evenodd" d="M4.6999 58.4098C2.4674 58.4098 0.587402 56.5218 0.587402 54.2798V4.71984C0.587402 2.47784 2.4674 0.589844 4.6999 0.589844H89.2999C91.5324 0.589844 93.4124 2.47784 93.4124 4.71984V54.2798C93.4124 56.5218 91.5324 58.4098 89.2999 58.4098H4.6999Z" fill="white"/>
<path d="M59.3964 48.7338L57.1051 45.9608V48.7338H50.5251V44.8398C49.6439 45.0758 48.7626 45.1938 47.5876 45.1938H46.5889V48.7338H37.0126L35.3676 46.4328L33.7226 48.7338H18.0364V33.1578H33.8989L35.5439 35.4588L37.1889 33.1578H93.3539V4.54284C93.3539 2.35984 91.0039 0.589844 88.8301 0.589844H4.99387C2.82012 0.589844 1.05762 2.35984 1.05762 4.54284V19.8828L4.11262 12.8028H10.3401L12.1026 16.8738V12.8028H19.6814L20.7976 16.2248L21.9139 12.8028H55.5776V14.3368C56.8701 13.3338 58.5151 12.8028 60.3951 12.8028H70.6176L72.3801 16.8738V12.8028H78.4314L80.4289 15.9888V12.8028H87.2439V28.3788H80.7814L78.9014 25.3698V28.3788H69.6776L68.7964 26.0778H66.6226L65.7414 28.3788H60.2776C58.7501 28.3788 56.9876 28.0248 55.5776 26.9628V28.3788H46.4714L44.2976 25.6058V28.3788H9.40012L8.51887 26.0778H6.34512L5.46387 28.3788H1.17512V54.5158C1.17512 56.6398 2.93762 58.4098 5.11137 58.4098H88.8889C91.0626 58.4098 93.4126 56.6398 93.4126 54.4568V47.7308C92.4139 48.3798 90.6514 48.6158 89.4176 48.6158H59.3964V48.7338Z" fill="#2671B9"/>
<path d="M20.5626 46.3149H29.1401V44.0139H23.0889V42.0079H29.0226V39.7069H23.0889V37.8189H29.1401V35.5179H20.5626V46.3149ZM41.3014 46.3149L37.0126 40.8869L41.3014 35.5769H38.1289L35.4851 38.9989L32.8414 35.5769H29.5514L33.8401 41.0049L29.5514 46.4329H32.7239L35.3676 43.0109L38.0114 46.4329H41.3014V46.3149ZM48.8801 39.1169C48.8801 39.8839 48.3514 40.3559 47.4701 40.3559H44.4151V37.7009H47.4701C48.4101 37.8189 48.8801 38.3499 48.8801 39.1169ZM51.4064 39.1169C51.4064 36.9929 49.9964 35.4589 47.7639 35.4589H41.8301V46.1969H44.4739V42.6569H47.7639C50.0551 42.7749 51.4064 41.2409 51.4064 39.1169ZM58.5151 40.2379H55.4601V37.8189H58.5151C59.3964 37.8189 59.9251 38.3499 59.9251 38.9399C59.8076 39.5889 59.3964 40.2379 58.5151 40.2379ZM63.0976 46.3149L59.5726 42.4209C61.3351 42.0669 62.5101 40.7689 62.5101 38.9989C62.5101 36.9929 61.1001 35.5769 58.8676 35.5769H53.0514V46.3149H55.6951V42.4209H56.9876L60.1601 46.3149H63.0976ZM63.6851 46.3149H72.2626V44.0139H66.2114V42.0079H72.1451V39.7069H66.2114V37.8189H72.2626V35.5179H63.6851V46.3149ZM76.0814 38.7039C76.0814 38.0549 76.4339 37.7009 77.0801 37.7009H81.7801L82.7789 35.3999H77.1976C74.9064 35.3999 73.5551 36.8159 73.5551 38.8219C73.5551 40.8279 74.8476 42.0079 76.9626 42.0079H79.4889C80.1351 42.0079 80.4876 42.3619 80.4876 43.0109C80.4876 43.6599 79.9589 44.0139 79.4889 44.0139H73.9076V46.3149H79.3714C81.6626 46.3149 83.0139 44.8989 83.0139 42.8929C83.0139 40.8869 81.7214 39.8839 79.6064 39.8839H77.0801C76.4926 39.7659 76.0814 39.3529 76.0814 38.7039ZM92.7076 35.5769L87.1264 35.4589C84.8351 35.4589 83.4839 36.8749 83.4839 38.8809C83.4839 40.8869 84.7764 42.0669 86.8914 42.0669H89.4176C90.0639 42.0669 90.4164 42.4209 90.4164 43.0699C90.4164 43.7189 89.8876 44.0729 89.4176 44.0729H83.7189V46.3739H89.1826C90.9451 46.3739 92.2376 45.4889 92.7076 44.2499C92.8251 43.8959 92.9426 43.4829 92.9426 43.0109C92.9426 42.4799 92.8251 42.1259 92.7076 41.7719C92.1789 40.6509 91.1801 40.0019 89.5351 40.0019H87.0089C86.3626 40.0019 86.0101 39.6479 86.0101 38.9989C86.0101 38.3499 86.3626 37.9959 87.0089 37.9959H91.7089L92.7076 35.5769ZM9.04762 21.5349H5.64012L6.63887 18.9979L7.28512 17.3459L7.93137 18.9979L9.04762 21.5349ZM10.8101 25.9599H13.7476L9.16512 15.2219H5.75762L1.05762 25.9599H3.99512L4.87637 23.6589H9.92887L10.8101 25.9599ZM25.0864 25.9599H27.6126V15.2219H23.4414L21.2676 21.4169L20.9151 22.5379L20.5626 21.4169L18.3889 15.2219H14.2176V25.9599H16.7439V17.2279L17.2726 18.8799L19.6814 25.9599H22.0901L24.6164 18.8799L25.1451 17.2279V18.8799C25.0864 18.8799 25.0864 25.9599 25.0864 25.9599ZM29.6689 25.9599H38.2464V23.6589H32.1951V21.6529H38.1289V19.3519H32.1951V17.4639H38.2464V15.1629H29.6689V25.9599ZM45.7076 19.8829H42.6526V17.4639H45.7076C46.5889 17.4639 47.1176 17.9949 47.1176 18.5849C47.0001 19.2339 46.6476 19.8829 45.7076 19.8829ZM50.2901 25.9599L46.7651 21.8889C48.5276 21.5349 49.7026 20.2369 49.7026 18.4669C49.7026 16.4609 48.2926 15.0449 46.0601 15.0449H40.2439V25.7829H42.8876V21.8889H44.0626L47.2351 25.7829H50.2901V25.9599ZM50.9364 25.9599H53.5801V15.1039H50.9364V25.9599ZM60.3951 17.4639H63.1564V15.0449H60.1014C56.8114 15.0449 54.9314 17.3459 54.9314 20.3549V20.6499C54.9314 23.8359 56.8114 25.9599 59.8664 25.9599H59.9839L60.9826 23.6589H60.2189C58.4564 23.6589 57.4576 22.5379 57.4576 20.6499V20.5319C57.6339 18.7619 58.6326 17.4639 60.3951 17.4639ZM69.5014 21.5349H66.0939L67.0926 18.9979L67.7389 17.3459L68.3851 18.9979L69.5014 21.5349ZM71.3226 25.9599H74.2601L69.6776 15.2219H66.2701L61.5701 25.9599H64.3314L65.2126 23.6589H70.2651L71.3226 25.9599ZM84.9526 25.9599V15.2219H82.4264V22.1249L81.6626 21.0039L77.8439 15.1629H74.6714V25.9599H77.1976V18.7619L77.9614 19.8829L81.8976 25.9599H84.9526Z" fill="#2671B9"/>
<path d="M89.3 1.18C91.2387 1.18 92.825 2.773 92.825 4.72V54.28C92.825 56.227 91.2387 57.82 89.3 57.82H4.7C2.76125 57.82 1.175 56.227 1.175 54.28V4.72C1.175 2.773 2.76125 1.18 4.7 1.18H89.3ZM89.3 0H4.7C2.115 0 0 2.124 0 4.72V54.28C0 56.876 2.115 59 4.7 59H89.3C91.885 59 94 56.876 94 54.28V4.72C94 2.124 91.885 0 89.3 0Z" fill="#E6E6E6"/>
</svg>
