<svg width="16" height="17" viewBox="0 0 16 17" fill="none" xmlns="http://www.w3.org/2000/svg">
<path d="M2 3.15661L2.68744 2.46918L14.0001 13.7818L13.3126 14.4692L2 3.15661Z" fill="#989898"/>
<path d="M8.10449 6.47173L9.99731 8.36454C9.97101 7.87107 9.76315 7.40475 9.41372 7.05532C9.06428 6.70588 8.59797 6.49802 8.10449 6.47173Z" fill="#989898"/>
<path d="M7.89574 10.4658L6.00293 8.57303C6.02923 9.0665 6.23709 9.53282 6.58652 9.88225C6.93595 10.2317 7.40227 10.4395 7.89574 10.4658Z" fill="#989898"/>
<path d="M8 11.4685C7.53848 11.4685 7.08317 11.3621 6.66951 11.1574C6.25584 10.9528 5.89497 10.6554 5.61498 10.2885C5.33499 9.92163 5.14343 9.49509 5.05519 9.04208C4.96695 8.58907 4.98443 8.1218 5.10625 7.67665L2.94781 5.5179C2.06625 6.3254 1.22625 7.37915 0.5 8.46852C1.32563 9.84352 2.455 11.2573 3.63125 12.0679C4.98063 12.9973 6.44781 13.4685 7.9925 13.4685C8.83665 13.4691 9.6745 13.3232 10.4688 13.0373L8.79344 11.3623C8.5349 11.433 8.26804 11.4688 8 11.4685Z" fill="#989898"/>
<path d="M7.9999 5.46875C8.46143 5.46873 8.91673 5.57519 9.3304 5.77985C9.74406 5.98451 10.1049 6.28186 10.3849 6.64875C10.6649 7.01564 10.8565 7.44219 10.9447 7.8952C11.0329 8.34821 11.0155 8.81547 10.8937 9.26062L13.1018 11.4688C14.0127 10.6484 14.854 9.545 15.4999 8.46875C14.6755 7.11156 13.5343 5.70125 12.338 4.88062C10.9718 3.94375 9.50959 3.46875 7.9924 3.46875C7.15754 3.46995 6.32969 3.62121 5.54834 3.91531L7.20803 5.575C7.46606 5.50438 7.73238 5.46864 7.9999 5.46875Z" fill="#989898"/>
</svg>
