<svg width="52" height="51" viewBox="0 0 52 51" fill="none" xmlns="http://www.w3.org/2000/svg">
<path d="M16.9852 20.5026C16.9852 22.5844 17.6665 24.0866 19.0088 24.9686C20.1093 25.6932 21.3846 25.8019 22.0482 25.8019C22.2094 25.8019 22.3391 25.7935 22.4292 25.788C22.4292 25.788 22.2189 27.187 23.2348 28.5693H23.1884C21.4283 28.5693 15.688 28.9442 15.688 33.7627C15.688 38.6621 20.96 38.9115 22.0182 38.9115C22.1015 38.9115 22.1507 38.9088 22.1507 38.9088C22.1616 38.9088 22.2367 38.9115 22.3664 38.9115C23.045 38.9115 24.7996 38.8251 26.4286 38.0155C28.5423 36.9705 29.6142 35.1464 29.6142 32.602C29.6142 30.1439 27.9811 28.6808 26.7891 27.6106C26.0613 26.9571 25.4318 26.3941 25.4318 25.8465C25.4318 25.2891 25.892 24.8697 26.4723 24.3388C27.4131 23.4818 28.3006 22.2597 28.3006 19.9494C28.3006 17.9191 28.0426 16.5549 26.4518 15.6896C26.617 15.6032 27.2042 15.5405 27.4937 15.4987C28.3553 15.3789 29.6156 15.2423 29.6156 14.5247V14.3867H23.3359C23.2731 14.3895 16.9852 14.6264 16.9852 20.5026ZM27.1223 33.0618C27.2424 35.021 25.5998 36.466 23.1324 36.6486C20.6268 36.8367 18.565 35.6857 18.4448 33.7279C18.3861 32.7859 18.7917 31.8662 19.585 31.1319C20.3892 30.3892 21.4939 29.9293 22.6955 29.8387C22.8375 29.8304 22.9781 29.822 23.1188 29.822C25.4387 29.8234 27.0089 31.2141 27.1223 33.0618ZM25.4823 19.1607C26.0982 21.3735 25.1683 23.6839 23.6854 24.1116C23.5147 24.1602 23.3383 24.1846 23.1611 24.1841C21.8038 24.1841 20.4589 22.7823 19.9591 20.8496C19.6806 19.7682 19.7038 18.8179 20.0233 17.9066C20.336 17.0078 20.9013 16.4044 21.6113 16.1996C21.782 16.1508 21.9581 16.1258 22.137 16.1258C23.7755 16.1258 24.8297 16.8197 25.4823 19.1607ZM36.1165 23.8622V19.6819H33.3856V23.8622H29.2892V26.6491H33.3856V30.8295H36.1165V26.6491H40.2128V23.8622H36.1165Z" fill="#DB7428"/>
<circle cx="26.0344" cy="25.5022" r="24.2912" stroke="#DB7428" stroke-width="2"/>
</svg>
