<svg width="41" height="46" viewBox="0 0 41 46" fill="none" xmlns="http://www.w3.org/2000/svg">
<path d="M1.03223 5.71887V45.8244H36.258L1.03223 5.71887Z" fill="#DB7428"/>
<path d="M39.5584 5.71887V45.8244H4.37598L39.5584 5.71887Z" fill="#DB7428"/>
<path d="M36.2327 45.823H4.3584L20.2912 27.6588L36.2327 45.823Z" fill="#C45910"/>
<path d="M2.17937 4.77279C3.383 4.77279 4.35872 3.79706 4.35872 2.59343C4.35872 1.3898 3.383 0.414062 2.17937 0.414062C0.975743 0.414062 0 1.3898 0 2.59343C0 3.79706 0.975743 4.77279 2.17937 4.77279Z" fill="#DB7428"/>
<path d="M38.82 4.77279C40.0236 4.77279 40.9994 3.79706 40.9994 2.59343C40.9994 1.3898 40.0236 0.414062 38.82 0.414062C37.6164 0.414062 36.6406 1.3898 36.6406 2.59343C36.6406 3.79706 37.6164 4.77279 38.82 4.77279Z" fill="#DB7428"/>
</svg>
