<svg width="94" height="59" viewBox="0 0 94 59" fill="none" xmlns="http://www.w3.org/2000/svg">
<path fill-rule="evenodd" clip-rule="evenodd" d="M4.6999 58.4098C2.4674 58.4098 0.587402 56.5218 0.587402 54.2798V4.71984C0.587402 2.47784 2.4674 0.589844 4.6999 0.589844H89.2999C91.5324 0.589844 93.4124 2.47784 93.4124 4.71984V54.2798C93.4124 56.5218 91.5324 58.4098 89.2999 58.4098H4.6999Z" fill="white"/>
<path d="M89.3 1.18C91.2387 1.18 92.825 2.773 92.825 4.72V54.28C92.825 56.227 91.2387 57.82 89.3 57.82H4.7C2.76125 57.82 1.175 56.227 1.175 54.28V4.72C1.175 2.773 2.76125 1.18 4.7 1.18H89.3ZM89.3 0H4.7C2.115 0 0 2.124 0 4.72V54.28C0 56.876 2.115 59 4.7 59H89.3C91.885 59 94 56.876 94 54.28V4.72C94 2.124 91.885 0 89.3 0Z" fill="#E6E6E6"/>
<path d="M46.6475 18.585L42.0063 40.415H36.3663L41.0075 18.585H46.6475ZM70.3238 32.686L73.2613 24.485L74.965 32.686H70.3238ZM76.61 40.474H81.8388L77.315 18.644H72.4975C71.44 18.644 70.5 19.293 70.0888 20.237L61.6288 40.474H67.5625L68.7375 37.229H75.9638L76.61 40.474ZM61.9225 33.335C61.9225 27.553 53.9913 27.258 54.05 24.662C54.05 23.895 54.8138 23.069 56.4588 22.833C57.2813 22.715 59.5138 22.656 61.9813 23.836L62.98 19.175C61.6288 18.703 59.8663 18.231 57.6925 18.231C52.1113 18.231 48.2338 21.181 48.175 25.429C48.1163 28.556 50.995 30.326 53.11 31.388C55.2838 32.45 56.0475 33.158 56.0475 34.102C56.0475 35.577 54.285 36.226 52.6988 36.226C49.8788 36.285 48.2338 35.459 46.9413 34.869L45.9425 39.648C47.235 40.238 49.7025 40.769 52.2288 40.828C58.045 40.769 61.9225 37.878 61.9225 33.335ZM38.5988 18.585L29.4925 40.415H23.5588L19.035 23.01C18.7413 21.948 18.5063 21.535 17.6838 21.063C16.3325 20.355 14.1 19.647 12.1025 19.234L12.22 18.585H21.7963C23.03 18.585 24.0875 19.411 24.3813 20.827L26.7313 33.453L32.6063 18.585H38.5988Z" fill="url(#paint0_linear)"/>
<defs>
<linearGradient id="paint0_linear" x1="19.6854" y1="34.8129" x2="78.4302" y2="23.5726" gradientUnits="userSpaceOnUse">
<stop stop-color="#22275D"/>
<stop offset="1" stop-color="#24479B"/>
</linearGradient>
</defs>
</svg>
