<svg width="17" height="17" viewBox="0 0 17 17" fill="none" xmlns="http://www.w3.org/2000/svg">
<path fill-rule="evenodd" clip-rule="evenodd" d="M2.69665 4.39589C3.33424 3.75849 4.19889 3.40042 5.10045 3.40042C6.002 3.40042 6.86665 3.75849 7.50425 4.39589L8.50045 5.39124L9.49664 4.39589C9.81028 4.07116 10.1855 3.81214 10.6003 3.63395C11.0151 3.45575 11.4612 3.36196 11.9127 3.35804C12.3641 3.35412 12.8118 3.44014 13.2297 3.6111C13.6475 3.78205 14.0272 4.03451 14.3464 4.35375C14.6656 4.67298 14.9181 5.0526 15.089 5.47045C15.26 5.88829 15.346 6.336 15.3421 6.78745C15.3382 7.2389 15.2444 7.68505 15.0662 8.09987C14.888 8.51468 14.629 8.88985 14.3042 9.20349L8.50045 15.0081L2.69665 9.20349C2.05924 8.5659 1.70117 7.70125 1.70117 6.79969C1.70117 5.89813 2.05924 5.03348 2.69665 4.39589Z" fill="#FF473E"/>
</svg>
